<svg width="800" height="600" viewBox="0 0 800 600" fill="none" xmlns="http://www.w3.org/2000/svg">
<path d="M285.4 556.5C294.3 556.5 303.2 556.5 312.1 556.5C313.05 556.5 313.05 555 312.1 555C303.2 555 294.3 555 285.4 555C284.45 555 284.45 556.5 285.4 556.5Z" fill="#161616"/>
<path d="M402.75 555.6C409.35 555.6 415.95 555.6 422.55 555.6C423.5 555.6 423.5 554.1 422.55 554.1C415.95 554.1 409.35 554.1 402.75 554.1C401.75 554.1 401.75 555.6 402.75 555.6Z" fill="#161616"/>
<path d="M432.15 554.7C436 554.7 439.8 554.7 443.65 554.7C444.6 554.7 444.6 553.2 443.65 553.2C439.8 553.2 436 553.2 432.15 553.2C431.2 553.2 431.2 554.7 432.15 554.7Z" fill="#161616"/>
<path d="M385.05 494.75H290.1C286.8 494.75 284.1 492.05 284.1 488.75V485.65C284.1 482.35 286.8 479.65 290.1 479.65H385.05C388.35 479.65 391.05 482.35 391.05 485.65V488.75C391.05 492.05 388.35 494.75 385.05 494.75Z" stroke="#161616" stroke-width="2" stroke-miterlimit="10"/>
<path d="M394.35 510.65H299.4C296.1 510.65 293.4 507.95 293.4 504.65V501.55C293.4 498.25 296.1 495.55 299.4 495.55H394.35C397.65 495.55 400.35 498.25 400.35 501.55V504.65C400.35 507.95 397.65 510.65 394.35 510.65Z" stroke="#161616" stroke-width="2" stroke-miterlimit="10"/>
<path d="M372.45 526.15H277.5C274.2 526.15 271.5 523.45 271.5 520.15V517.05C271.5 513.75 274.2 511.05 277.5 511.05H372.45C375.75 511.05 378.45 513.75 378.45 517.05V520.15C378.45 523.45 375.75 526.15 372.45 526.15Z" stroke="#161616" stroke-width="2" stroke-miterlimit="10"/>
<path d="M384.05 540.75H289.15C285.85 540.75 283.15 538.05 283.15 534.75V531.65C283.15 528.35 285.85 525.65 289.15 525.65H384.1C387.4 525.65 390.1 528.35 390.1 531.65V534.75C390.05 538.05 387.35 540.75 384.05 540.75Z" stroke="#161616" stroke-width="2" stroke-miterlimit="10"/>
<path d="M394.35 555.85H299.4C296.1 555.85 293.4 553.15 293.4 549.85V546.75C293.4 543.45 296.1 540.75 299.4 540.75H394.35C397.65 540.75 400.35 543.45 400.35 546.75V549.85C400.35 553.15 397.65 555.85 394.35 555.85Z" stroke="#161616" stroke-width="2" stroke-miterlimit="10"/>
<path d="M357.3 486.15C357.3 488.2 357.3 490.3 357.3 492.35C357.3 493.05 358.45 493.1 358.45 492.35C358.45 490.3 358.45 488.2 358.45 486.15C358.4 485.4 357.3 485.4 357.3 486.15Z" fill="#161616"/>
<path d="M360.65 487.25C360.65 489.15 360.65 491 360.65 492.9C360.65 493.6 361.8 493.65 361.8 492.9C361.8 491 361.8 489.15 361.8 487.25C361.8 486.55 360.65 486.55 360.65 487.25Z" fill="#161616"/>
<path d="M371.95 484.15C371.95 486.8 371.95 489.4 371.95 492.05C371.95 492.75 373.1 492.8 373.1 492.05C373.1 489.4 373.1 486.8 373.1 484.15C373.1 483.45 371.95 483.45 371.95 484.15Z" fill="#161616"/>
<path d="M374.2 488.65C374.2 489.7 374.2 490.7 374.2 491.75C374.2 492.45 375.35 492.5 375.35 491.75C375.35 490.7 375.35 489.7 375.35 488.65C375.35 487.95 374.2 487.95 374.2 488.65Z" fill="#161616"/>
<path d="M296.6 483.95C296.6 486.85 296.6 489.75 296.6 492.7C296.6 493.4 297.75 493.45 297.75 492.7C297.75 489.8 297.75 486.9 297.75 483.95C297.7 483.2 296.6 483.2 296.6 483.95Z" fill="#161616"/>
<path d="M291.95 486.15C291.95 487.85 291.95 489.6 291.95 491.3C291.95 492 293.1 492.05 293.1 491.3C293.1 489.6 293.1 487.85 293.1 486.15C293.1 485.45 291.95 485.45 291.95 486.15Z" fill="#161616"/>
<path d="M310.65 484.3C310.65 486.65 310.65 489 310.65 491.3C310.65 492 311.8 492.05 311.8 491.3C311.8 488.95 311.8 486.6 311.8 484.3C311.75 483.55 310.65 483.55 310.65 484.3Z" fill="#161616"/>
<path d="M305.5 488.4C305.5 489.95 305.5 491.5 305.5 493.05C305.5 493.75 306.65 493.8 306.65 493.05C306.65 491.5 306.65 489.95 306.65 488.4C306.6 487.65 305.5 487.65 305.5 488.4Z" fill="#161616"/>
<path d="M331.7 484.45C331.7 487.5 331.7 490.5 331.7 493.55C331.7 494.25 332.85 494.3 332.85 493.55C332.85 490.5 332.85 487.5 332.85 484.45C332.85 483.75 331.7 483.75 331.7 484.45Z" fill="#161616"/>
<path d="M335.15 487.9C335.15 489.45 335.15 491 335.15 492.55C335.15 493.25 336.3 493.3 336.3 492.55C336.3 491 336.3 489.45 336.3 487.9C336.25 487.15 335.15 487.15 335.15 487.9Z" fill="#161616"/>
<path d="M340.25 483.75C340.25 486.8 340.25 489.8 340.25 492.85C340.25 493.55 341.4 493.6 341.4 492.85C341.4 489.8 341.4 486.8 341.4 483.75C341.4 483.05 340.25 483.05 340.25 483.75Z" fill="#161616"/>
<path d="M306.85 499C306.85 502.6 306.85 506.2 306.85 509.8C306.85 510.5 308 510.55 308 509.8C308 506.2 308 502.6 308 499C308 498.3 306.85 498.3 306.85 499Z" fill="#161616"/>
<path d="M313.05 502.6C313.05 505.15 313.05 507.75 313.05 510.3C313.05 511 314.2 511.05 314.2 510.3C314.2 507.75 314.2 505.15 314.2 502.6C314.15 501.9 313.05 501.9 313.05 502.6Z" fill="#161616"/>
<path d="M333.1 500.55C333.1 503.1 333.1 505.7 333.1 508.25C333.1 508.95 334.25 509 334.25 508.25C334.25 505.7 334.25 503.1 334.25 500.55C334.2 499.85 333.1 499.85 333.1 500.55Z" fill="#161616"/>
<path d="M346.1 497.8C346.1 501.95 346.1 506.15 346.1 510.3C346.1 511 347.25 511.05 347.25 510.3C347.25 506.15 347.25 501.95 347.25 497.8C347.2 497.1 346.1 497.1 346.1 497.8Z" fill="#161616"/>
<path d="M357.9 502.8C357.9 504.15 357.9 505.55 357.9 506.9C357.9 507.6 359.05 507.65 359.05 506.9C359.05 505.55 359.05 504.15 359.05 502.8C359.05 502.05 357.9 502.05 357.9 502.8Z" fill="#161616"/>
<path d="M283.2 515.3C283.2 518.6 283.2 521.9 283.2 525.25C283.2 525.95 284.35 526 284.35 525.25C284.35 521.95 284.35 518.65 284.35 515.3C284.35 514.55 283.2 514.55 283.2 515.3Z" fill="#161616"/>
<path d="M309.6 515.65C309.6 519.1 309.6 522.5 309.6 525.95C309.6 526.65 310.75 526.7 310.75 525.95C310.75 522.5 310.75 519.1 310.75 515.65C310.75 514.9 309.6 514.9 309.6 515.65Z" fill="#161616"/>
<path d="M298.65 516.5C298.65 518.8 298.65 521.05 298.65 523.35C298.65 524.05 299.8 524.1 299.8 523.35C299.8 521.05 299.8 518.8 299.8 516.5C299.75 515.75 298.65 515.75 298.65 516.5Z" fill="#161616"/>
<path d="M302.4 514.25C302.4 516.15 302.4 518 302.4 519.9C302.4 520.6 303.55 520.65 303.55 519.9C303.55 518 303.55 516.15 303.55 514.25C303.55 513.55 302.4 513.55 302.4 514.25Z" fill="#161616"/>
<path d="M338.75 514.45C338.75 517.95 338.75 521.4 338.75 524.9C338.75 525.6 339.9 525.65 339.9 524.9C339.9 521.4 339.9 517.95 339.9 514.45C339.85 513.7 338.75 513.7 338.75 514.45Z" fill="#161616"/>
<path d="M329.3 514.25C329.3 515.1 329.3 515.95 329.3 516.8C329.3 517.5 330.45 517.55 330.45 516.8C330.45 515.95 330.45 515.1 330.45 514.25C330.45 513.55 329.3 513.55 329.3 514.25Z" fill="#161616"/>
<path d="M361.15 511.2C361.15 514.5 361.15 517.8 361.15 521.15C361.15 521.85 362.3 521.9 362.3 521.15C362.3 517.85 362.3 514.55 362.3 511.2C362.3 510.45 361.15 510.45 361.15 511.2Z" fill="#161616"/>
<path d="M366.15 518.35C366.15 520.35 366.15 522.35 366.15 524.35C366.15 525.05 367.3 525.1 367.3 524.35C367.3 522.35 367.3 520.35 367.3 518.35C367.25 517.65 366.15 517.65 366.15 518.35Z" fill="#161616"/>
<path d="M348.15 514.25C348.15 517.15 348.15 520.05 348.15 523C348.15 523.7 349.3 523.75 349.3 523C349.3 520.1 349.3 517.2 349.3 514.25C349.3 513.55 348.15 513.55 348.15 514.25Z" fill="#161616"/>
<path d="M292.8 527.3C292.8 531 292.8 534.7 292.8 538.45C292.8 539.15 293.95 539.2 293.95 538.45C293.95 534.75 293.95 531.05 293.95 527.3C293.95 526.55 292.8 526.55 292.8 527.3Z" fill="#161616"/>
<path d="M301.5 540.45C301.5 536.75 301.5 533.05 301.5 529.3C301.5 528.6 300.35 528.55 300.35 529.3C300.35 533 300.35 536.7 300.35 540.45C300.35 541.2 301.5 541.2 301.5 540.45Z" fill="#161616"/>
<path d="M305.1 540.15C305.1 538.7 305.1 537.3 305.1 535.85C305.1 535.15 303.95 535.1 303.95 535.85C303.95 537.3 303.95 538.7 303.95 540.15C303.95 540.85 305.1 540.85 305.1 540.15Z" fill="#161616"/>
<path d="M313.05 526.45C313.05 530.35 313.05 534.2 313.05 538.1C313.05 538.8 314.2 538.85 314.2 538.1C314.2 534.2 314.2 530.35 314.2 526.45C314.15 525.7 313.05 525.7 313.05 526.45Z" fill="#161616"/>
<path d="M315.95 531.9C315.95 533.75 315.95 535.55 315.95 537.4C315.95 538.1 317.1 538.15 317.1 537.4C317.1 535.55 317.1 533.75 317.1 531.9C317.05 531.2 315.95 531.2 315.95 531.9Z" fill="#161616"/>
<path d="M319.9 529.85C319.9 531.85 319.9 533.85 319.9 535.85C319.9 536.55 321.05 536.6 321.05 535.85C321.05 533.85 321.05 531.85 321.05 529.85C321 529.15 319.9 529.15 319.9 529.85Z" fill="#161616"/>
<path d="M332.75 526.45C332.75 530.5 332.75 534.55 332.75 538.6C332.75 539.3 333.9 539.35 333.9 538.6C333.9 534.55 333.9 530.5 333.9 526.45C333.85 525.7 332.75 525.7 332.75 526.45Z" fill="#161616"/>
<path d="M345.75 530.9C345.75 533.15 345.75 535.35 345.75 537.6C345.75 538.3 346.9 538.35 346.9 537.6C346.9 535.35 346.9 533.15 346.9 530.9C346.9 530.15 345.75 530.15 345.75 530.9Z" fill="#161616"/>
<path d="M363.55 526.1C363.55 530.4 363.55 534.65 363.55 538.95C363.55 539.65 364.7 539.7 364.7 538.95C364.7 534.65 364.7 530.4 364.7 526.1C364.7 525.35 363.55 525.35 363.55 526.1Z" fill="#161616"/>
<path d="M369.05 532.4C369.05 534.45 369.05 536.5 369.05 538.55C369.05 539.25 370.2 539.3 370.2 538.55C370.2 536.5 370.2 534.45 370.2 532.4C370.2 531.7 369.05 531.7 369.05 532.4Z" fill="#161616"/>
<path d="M378.5 526.75C378.5 529.95 378.5 533.15 378.5 536.35C378.5 537.05 379.65 537.1 379.65 536.35C379.65 533.15 379.65 529.95 379.65 526.75C379.6 526.05 378.5 526.05 378.5 526.75Z" fill="#161616"/>
<path d="M306.8 555.4C306.8 551.7 306.8 548 306.8 544.25C306.8 543.55 305.65 543.5 305.65 544.25C305.65 547.95 305.65 551.65 305.65 555.4C305.65 556.1 306.8 556.1 306.8 555.4Z" fill="#161616"/>
<path d="M310.9 555.2C310.9 553.3 310.9 551.45 310.9 549.55C310.9 548.85 309.75 548.8 309.75 549.55C309.75 551.45 309.75 553.3 309.75 555.2C309.8 555.95 310.9 555.95 310.9 555.2Z" fill="#161616"/>
<path d="M322.45 542.2C322.45 546.5 322.45 550.75 322.45 555.05C322.45 555.75 323.6 555.8 323.6 555.05C323.6 550.75 323.6 546.5 323.6 542.2C323.6 541.45 322.45 541.45 322.45 542.2Z" fill="#161616"/>
<path d="M332.75 544.25C332.75 546.9 332.75 549.5 332.75 552.15C332.75 552.85 333.9 552.9 333.9 552.15C333.9 549.5 333.9 546.9 333.9 544.25C333.85 543.5 332.75 543.5 332.75 544.25Z" fill="#161616"/>
<path d="M329.15 545.8C329.15 546.85 329.15 547.85 329.15 548.9C329.15 549.6 330.3 549.65 330.3 548.9C330.3 547.85 330.3 546.85 330.3 545.8C330.25 545.05 329.15 545.05 329.15 545.8Z" fill="#161616"/>
<path d="M351.4 541C351.4 545.45 351.4 549.9 351.4 554.35C351.4 555.05 352.55 555.1 352.55 554.35C352.55 549.9 352.55 545.45 352.55 541C352.55 540.25 351.4 540.25 351.4 541Z" fill="#161616"/>
<path d="M355.7 546.8C355.7 548.8 355.7 550.8 355.7 552.8C355.7 553.5 356.85 553.55 356.85 552.8C356.85 550.8 356.85 548.8 356.85 546.8C356.8 546.1 355.7 546.1 355.7 546.8Z" fill="#161616"/>
<path d="M366.65 541.65C366.65 545.8 366.65 550 366.65 554.15C366.65 554.85 367.8 554.9 367.8 554.15C367.8 550 367.8 545.8 367.8 541.65C367.8 540.95 366.65 540.95 366.65 541.65Z" fill="#161616"/>
<path d="M386.55 542.7C386.55 546.3 386.55 549.9 386.55 553.5C386.55 554.2 387.7 554.25 387.7 553.5C387.7 549.9 387.7 546.3 387.7 542.7C387.65 542 386.55 542 386.55 542.7Z" fill="#161616"/>
<path d="M389.6 547.35C389.6 549.05 389.6 550.8 389.6 552.5C389.6 553.2 390.75 553.25 390.75 552.5C390.75 550.8 390.75 549.05 390.75 547.35C390.75 546.6 389.6 546.6 389.6 547.35Z" fill="#161616"/>
<path d="M376.8 509.5C376.8 506.85 376.8 504.15 376.8 501.5C376.8 500.8 375.65 500.75 375.65 501.5C375.65 504.15 375.65 506.85 375.65 509.5C375.7 510.2 376.8 510.25 376.8 509.5Z" fill="#161616"/>
<path d="M383.7 498.25C383.7 501.85 383.7 505.4 383.7 509C383.7 509.7 384.85 509.75 384.85 509C384.85 505.4 384.85 501.85 384.85 498.25C384.8 497.55 383.7 497.5 383.7 498.25Z" fill="#161616"/>
<path d="M388.9 476.85C391.65 478.45 393.15 481.45 392.9 484.6C392.85 485.3 393.95 485.3 394.05 484.6C394.35 481.05 392.6 477.7 389.5 475.9C388.85 475.5 388.25 476.45 388.9 476.85Z" fill="#161616"/>
<path d="M274.4 514C273.05 516.2 272.8 518.8 273.7 521.2C273.95 521.85 275.05 521.6 274.8 520.9C274 518.75 274.2 516.55 275.4 514.55C275.75 513.95 274.8 513.35 274.4 514Z" fill="#161616"/>
<path d="M268.75 508.35C265.85 512 264.4 516.35 264.5 521C264.5 521.7 265.65 521.75 265.65 521C265.55 516.65 266.9 512.55 269.6 509.1C270 508.6 269.2 507.8 268.75 508.35Z" fill="#161616"/>
<path d="M388.4 524.3C390.4 525.35 391.65 527.35 391.65 529.65C391.65 530.35 392.8 530.4 392.8 529.65C392.8 527 391.35 524.55 389 523.35C388.35 523 387.75 523.95 388.4 524.3Z" fill="#161616"/>
<path opacity="0.15" d="M336.55 480.85C339.6 480.45 346.75 479.95 353.55 484.05C355.5 485.2 357 486.5 358.25 487.75C358.1 490.05 357.9 492.35 357.75 494.65C350.4 494.95 343.1 495.25 335.75 495.5C336.75 495.55 344.75 496 349.1 502.5C351 505.35 351.45 508.2 351.55 509.9C351.3 511.7 350.5 515.55 347.6 519.25C344.1 523.7 339.7 525.35 338 525.9C338.8 526.3 342.6 528.45 343.9 533.05C344.65 535.75 344.2 538.1 343.9 539.2C339.05 544.45 334.2 549.7 329.35 555C351.6 555.25 373.9 555.5 396.15 555.75C397 555.3 398.6 554.25 399.6 552.3C401.25 549.1 400.45 545.25 398.6 542.95C395.1 538.5 387.15 540.05 386.25 540.25C386.5 540.1 390.55 537.05 390.2 532.1C389.95 528.55 387.5 526.4 387 525.95C383.45 525.7 379.95 525.45 376.4 525.2C376.75 524.85 379.4 521.95 378.85 517.8C378.4 514.6 376.25 511.9 373.2 510.65C377.95 510.6 382.05 510.5 385.3 510.4C394.75 510.15 396.9 510 398.6 508.2C400.9 505.7 401.65 500.85 399.35 497.85C398.1 496.25 396.4 495.65 395.4 495.4C391.7 495.25 388 495.05 384.3 494.9C384.85 494.9 387.5 494.95 389.5 492.95C391.45 490.95 391.3 488.3 391.25 487.05C391.2 486.25 390.9 482.95 388.55 480.9C386.1 478.75 382.95 479.35 377.2 479.65C372.7 479.9 368.15 479.45 363.65 479.65C354.25 480.05 344.75 480.5 336.55 480.85Z" fill="#3D3D3D"/>
<path d="M405.9 542.55C440.35 542.55 474.85 542.55 509.3 542.55C519.1 542.55 528.95 542.55 538.75 542.55C539.7 542.55 539.7 541.05 538.75 541.05C504.3 541.05 469.8 541.05 435.35 541.05C425.55 541.05 415.7 541.05 405.9 541.05C404.95 541.05 404.95 542.55 405.9 542.55Z" fill="#E8E8E8"/>
<path d="M552.7 543.8C575.8 542 598.85 541.5 622 543.45C622.95 543.55 622.95 542.05 622 541.95C598.85 540 575.85 540.5 552.7 542.3C551.75 542.35 551.75 543.85 552.7 543.8Z" fill="#E8E8E8"/>
<path d="M615.3 551.7C627.75 552.8 640.1 549.7 652.5 548.9C665.25 548.1 678.05 548.9 690.65 551.15C691.6 551.3 692 549.85 691.05 549.7C678.65 547.5 666.05 546.65 653.45 547.35C640.75 548.05 628.05 551.35 615.3 550.2C614.35 550.1 614.35 551.6 615.3 551.7Z" fill="#E8E8E8"/>
<path d="M623.1 541.6C617.9 537.6 613.05 533.1 608.75 528.15C607.8 527.05 606.9 525.95 606 524.85C605.35 524.05 604.65 523.2 604.2 522.3C603.6 521.1 603.85 520.25 603.85 518.9C603.85 516.55 602.5 516.65 600.95 515.05C598.6 512.6 598.25 509.05 597.55 505.9C596.9 502.95 595.7 500.35 594.35 497.7C591.2 491.35 589.75 484.1 587.85 477.3C587.7 477.6 587.5 477.9 587.35 478.2C593.95 477.3 601.1 482.25 606.35 485.85C609.05 487.7 611.6 489.7 614.05 491.85C616.5 494.05 620.25 497.15 618.9 500.85C618.7 501.35 619.2 501.8 619.6 501.8C623.7 501.95 626.8 506.05 629 509.1C631.15 512 632.9 515.2 634.2 518.55C636.8 525.3 637.6 532.65 636.45 539.8C636.3 540.75 637.75 541.15 637.9 540.2C639.2 532.2 638.2 524 634.95 516.5C633.35 512.85 631.25 509.4 628.7 506.3C626.35 503.45 623.5 500.4 619.55 500.25C619.8 500.55 620.05 500.9 620.25 501.2C621.4 498.1 619.6 495.25 617.5 493.05C614.8 490.2 611.65 487.75 608.45 485.5C602.55 481.3 594.5 475.65 586.85 476.75C586.45 476.8 586.25 477.3 586.35 477.65C588.3 484.6 589.75 491.9 593 498.4C594.65 501.75 595.75 504.9 596.55 508.55C597.1 511.25 597.9 514.05 599.9 516.1C600.75 517 602.25 517.5 602.4 518.8C602.5 520 602.1 520.85 602.55 522.15C603.5 524.8 605.95 527.2 607.75 529.25C612.15 534.3 617.1 538.85 622.4 542.95C623.1 543.45 623.85 542.15 623.1 541.6Z" fill="#E8E8E8"/>
<path d="M631.65 508.65C633.4 502.2 638.6 496.6 642.7 491.5C643.8 490.15 644.85 488.85 645.95 487.55C646.85 486.45 648 484.4 649.55 484.15C650.2 484.05 650.5 484.45 651.2 484C651.95 483.55 652.25 482.65 652.65 481.95C655.65 476.5 660.45 472.55 665.5 469C669.45 466.2 673.35 463.4 675.3 458.8C674.8 458.65 674.35 458.55 673.85 458.4C671.8 466 671.8 473.55 673.1 481.3C674.45 489.35 674.75 497.15 672.55 505.15C668.35 520.4 656.8 530.65 645.05 540.35C644.3 540.95 645.35 542 646.1 541.4C657.6 531.9 668.95 521.85 673.5 507.15C675.65 500.15 676.25 492.75 675.25 485.5C674.65 481.2 673.7 477 673.55 472.6C673.4 467.9 674 463.25 675.25 458.75C675.5 457.8 674.15 457.5 673.8 458.35C671.5 463.85 665.85 466.65 661.35 470.1C659.05 471.85 656.9 473.8 654.95 475.95C654.1 476.9 653.3 477.95 652.6 479C652.05 479.85 651.2 482.15 650.3 482.45C649.7 482.65 649.05 482.3 648.35 482.6C647.35 483 646.7 484.2 646.05 484.95C643.85 487.6 641.65 490.2 639.55 492.9C635.9 497.5 631.75 502.4 630.15 508.15C629.95 509.2 631.4 509.6 631.65 508.65Z" fill="#E8E8E8"/>
<path d="M593.55 485.9C598.05 489.1 601.45 493.4 604.8 497.75C608.35 502.25 611.85 506.8 615.15 511.5C621.5 520.5 627.05 530.15 630 540.85C630.25 541.8 631.7 541.4 631.45 540.45C628.4 529.35 622.6 519.35 615.95 510.05C612.7 505.5 609.3 501.1 605.85 496.7C602.4 492.25 598.9 487.9 594.25 484.65C593.5 484.05 592.75 485.35 593.55 485.9Z" fill="#E8E8E8"/>
<path d="M668.55 471.35C660.6 492.25 642.25 507.85 637 529.95C636.8 530.9 638.2 531.3 638.45 530.35C643.65 508.25 662.05 492.65 670 471.75C670.35 470.85 668.9 470.45 668.55 471.35Z" fill="#E8E8E8"/>
<path d="M656.25 474.9C657 481.85 656.55 488.75 654.9 495.5C654.65 496.45 656.1 496.85 656.35 495.9C658 489 658.5 481.95 657.75 474.9C657.65 473.95 656.15 473.95 656.25 474.9Z" fill="#E8E8E8"/>
<path d="M660.8 489.05C665.5 486.1 669.95 482.8 674.15 479.15C674.9 478.5 673.8 477.45 673.1 478.1C669 481.65 664.65 484.9 660.05 487.75C659.2 488.3 659.95 489.6 660.8 489.05Z" fill="#E8E8E8"/>
<path d="M594.1 499.05C597.55 498.95 602.4 497.95 605.55 499.6C606.4 500.05 607.15 498.75 606.3 498.3C602.75 496.4 597.95 497.4 594.1 497.55C593.1 497.6 593.1 499.1 594.1 499.05Z" fill="#E8E8E8"/>
<path d="M613 491.45C612.4 496.3 612.5 501.05 613.2 505.9C613.35 506.85 614.8 506.45 614.65 505.5C613.95 500.8 613.95 496.15 614.5 491.45C614.65 490.5 613.15 490.5 613 491.45Z" fill="#E8E8E8"/>
<path d="M582.25 559.55C590.35 560 598.35 558.2 606.45 558.35C614.2 558.5 621.75 560.55 629.5 559.3C630.45 559.15 630.05 557.7 629.1 557.85C621.2 559.15 613.4 556.85 605.5 556.85C597.75 556.85 590.05 558.5 582.25 558.05C581.3 557.95 581.3 559.45 582.25 559.55Z" fill="#E8E8E8"/>
<path d="M675.95 540.75C681.75 539.95 687.6 539.7 693.45 539.95C699.2 540.2 704.9 540.9 710.7 540.4C716.35 539.95 721.95 539.05 727.65 539.1C733.4 539.15 739.1 539.8 744.8 540.55C745.75 540.65 745.75 539.15 744.8 539.05C739.1 538.35 733.4 537.65 727.65 537.6C721.65 537.55 715.75 538.55 709.75 538.95C704 539.35 698.3 538.6 692.55 538.4C686.85 538.2 681.2 538.55 675.6 539.3C674.6 539.45 675 540.9 675.95 540.75Z" fill="#E8E8E8"/>
<path d="M157.15 550.35C172.65 552.5 188 549.05 203.45 548C211.65 547.45 219.7 548.05 227.9 548.8C236.1 549.55 244.3 549.9 252.55 549.95C261.95 550 271.4 549.75 280.8 549.45C281.75 549.4 281.75 547.9 280.8 547.95C270.25 548.25 259.65 548.55 249.1 548.4C238.75 548.25 228.55 547.1 218.25 546.45C197.95 545.1 177.8 551.7 157.55 548.9C156.6 548.8 156.2 550.2 157.15 550.35Z" fill="#E8E8E8"/>
<path d="M244.7 558.8C250.55 558.8 256.35 557.4 262.15 556.95C268.05 556.5 273.95 556.4 279.85 556.65C280.8 556.7 280.8 555.2 279.85 555.15C273.95 554.9 268.05 554.95 262.15 555.45C256.35 555.9 250.5 557.3 244.7 557.3C243.75 557.3 243.75 558.8 244.7 558.8Z" fill="#E8E8E8"/>
<path d="M212.95 235C212.95 274 212.95 313 212.95 351.95C212.95 390.9 212.95 429.95 212.95 468.9C212.95 490.9 212.95 512.9 212.95 534.9C212.95 535.85 214.45 535.85 214.45 534.9C214.45 495.9 214.45 456.9 214.45 417.95C214.45 379 214.45 339.95 214.45 301C214.45 279 214.45 257 214.45 235C214.45 234.05 212.95 234.05 212.95 235Z" fill="#E8E8E8"/>
<path d="M338.85 216.7C338.85 250.15 338.85 283.6 338.85 317.05C338.85 350.5 338.85 383.95 338.85 417.4C338.85 436.35 338.85 455.35 338.85 474.3C338.85 475.25 340.35 475.25 340.35 474.3C340.35 440.85 340.35 407.4 340.35 373.95C340.35 340.5 340.35 307.05 340.35 273.6C340.35 254.65 340.35 235.65 340.35 216.7C340.35 215.75 338.85 215.75 338.85 216.7Z" fill="#E8E8E8"/>
<path d="M341.85 359.55C370.2 371.35 398.6 383.05 427.1 394.55C428 394.9 428.4 393.45 427.5 393.1C399 381.6 370.6 369.9 342.25 358.1C341.35 357.75 341 359.2 341.85 359.55Z" fill="#E8E8E8"/>
<path d="M421.25 393.55C421.25 431.15 421.25 468.8 421.25 506.4C421.25 517.05 421.25 527.7 421.25 538.35C421.25 539.3 422.75 539.3 422.75 538.35C422.75 500.75 422.75 463.1 422.75 425.5C422.75 414.85 422.75 404.2 422.75 393.55C422.75 392.6 421.25 392.6 421.25 393.55Z" fill="#E8E8E8"/>
<path d="M557.85 537.8C557.85 506.3 557.85 474.85 557.85 443.35C557.85 442.4 556.35 442.4 556.35 443.35C556.35 474.85 556.35 506.3 556.35 537.8C556.35 538.75 557.85 538.75 557.85 537.8Z" fill="#E8E8E8"/>
<path d="M543.9 446.75C574.45 433.6 605.1 420.4 634.15 404.1C642.45 399.45 650.65 394.5 658.65 389.25C659.45 388.7 658.7 387.4 657.9 387.95C630 406.2 599.9 420.6 569.5 434C560.75 437.85 551.95 441.65 543.2 445.4C542.25 445.85 543.05 447.1 543.9 446.75Z" fill="#E8E8E8"/>
<path d="M582.45 427.35C582.45 386.95 582.45 346.5 582.45 306.1C582.45 294.6 582.45 283.15 582.45 271.65C582.45 270.7 580.95 270.7 580.95 271.65C580.95 312.05 580.95 352.5 580.95 392.9C580.95 404.4 580.95 415.85 580.95 427.35C580.95 428.3 582.45 428.3 582.45 427.35Z" fill="#E8E8E8"/>
<path d="M573.7 274.7C610.95 274.7 648.2 274.7 685.45 274.7C696.1 274.7 706.75 274.7 717.35 274.7C718.3 274.7 718.3 273.2 717.35 273.2C680.1 273.2 642.85 273.2 605.6 273.2C594.95 273.2 584.3 273.2 573.7 273.2C572.7 273.2 572.7 274.7 573.7 274.7Z" fill="#E8E8E8"/>
<path d="M703.45 279.65C703.45 344.9 703.45 410.15 703.45 475.4C703.45 493.7 703.45 512 703.45 530.35C703.45 531.3 704.95 531.3 704.95 530.35C704.95 465.1 704.95 399.85 704.95 334.6C704.95 316.3 704.95 298 704.95 279.65C704.95 278.7 703.45 278.7 703.45 279.65Z" fill="#E8E8E8"/>
<path d="M206.55 236.65C241.5 225.4 278.8 222.95 315.05 218.8C325.65 217.6 336.25 216.4 346.85 215.15C347.8 215.05 347.8 213.55 346.85 213.65C327.95 215.8 309 218 290.1 220.15C272.15 222.2 254.1 224.15 236.35 227.6C226.15 229.55 216.05 232.05 206.15 235.2C205.25 235.5 205.65 236.95 206.55 236.65Z" fill="#E8E8E8"/>
<path d="M223.7 273.05C223.7 264.7 223.7 256.35 223.7 248.05C223.7 247.1 222.2 247.1 222.2 248.05C222.2 256.4 222.2 264.75 222.2 273.05C222.2 274 223.7 274 223.7 273.05Z" fill="#E8E8E8"/>
<path d="M222.5 247.95C227.4 247.95 232.3 247.95 237.2 247.95C238.15 247.95 238.15 246.45 237.2 246.45C232.3 246.45 227.4 246.45 222.5 246.45C221.55 246.45 221.55 247.95 222.5 247.95Z" fill="#E8E8E8"/>
<path d="M236.5 247.6C236.5 256.3 236.5 265 236.5 273.65C236.5 274.6 238 274.6 238 273.65C238 264.95 238 256.25 238 247.6C238 246.65 236.5 246.65 236.5 247.6Z" fill="#E8E8E8"/>
<path d="M223.15 274.65C227.5 274.65 231.85 274.65 236.2 274.65C237.15 274.65 237.15 273.15 236.2 273.15C231.85 273.15 227.5 273.15 223.15 273.15C222.2 273.15 222.15 274.65 223.15 274.65Z" fill="#E8E8E8"/>
<path d="M265.9 272.85C265.9 264.5 265.9 256.15 265.9 247.85C265.9 246.9 264.4 246.9 264.4 247.85C264.4 256.2 264.4 264.55 264.4 272.85C264.4 273.8 265.9 273.8 265.9 272.85Z" fill="#E8E8E8"/>
<path d="M264.75 247.7C269.65 247.7 274.55 247.7 279.45 247.7C280.4 247.7 280.4 246.2 279.45 246.2C274.55 246.2 269.65 246.2 264.75 246.2C263.75 246.2 263.75 247.7 264.75 247.7Z" fill="#E8E8E8"/>
<path d="M278.7 247.4C278.7 256.1 278.7 264.8 278.7 273.45C278.7 274.4 280.2 274.4 280.2 273.45C280.2 264.75 280.2 256.05 280.2 247.4C280.2 246.45 278.7 246.45 278.7 247.4Z" fill="#E8E8E8"/>
<path d="M265.35 274.4C269.7 274.4 274.05 274.4 278.4 274.4C279.35 274.4 279.35 272.9 278.4 272.9C274.05 272.9 269.7 272.9 265.35 272.9C264.4 272.9 264.4 274.4 265.35 274.4Z" fill="#E8E8E8"/>
<path d="M309.25 271.9C309.25 263.55 309.25 255.2 309.25 246.9C309.25 245.95 307.75 245.95 307.75 246.9C307.75 255.25 307.75 263.6 307.75 271.9C307.75 272.85 309.25 272.85 309.25 271.9Z" fill="#E8E8E8"/>
<path d="M308.05 246.75C312.95 246.75 317.85 246.75 322.75 246.75C323.7 246.75 323.7 245.25 322.75 245.25C317.85 245.25 312.95 245.25 308.05 245.25C307.1 245.25 307.1 246.75 308.05 246.75Z" fill="#E8E8E8"/>
<path d="M322.05 246.45C322.05 255.15 322.05 263.85 322.05 272.5C322.05 273.45 323.55 273.45 323.55 272.5C323.55 263.8 323.55 255.1 323.55 246.45C323.55 245.45 322.05 245.45 322.05 246.45Z" fill="#E8E8E8"/>
<path d="M308.7 273.45C313.05 273.45 317.4 273.45 321.75 273.45C322.7 273.45 322.7 271.95 321.75 271.95C317.4 271.95 313.05 271.95 308.7 271.95C307.75 271.95 307.75 273.45 308.7 273.45Z" fill="#E8E8E8"/>
<path d="M208.4 343.35C208.4 376.3 208.4 409.2 208.4 442.15C208.4 443.1 209.9 443.1 209.9 442.15C209.9 409.2 209.9 376.3 209.9 343.35C209.9 342.35 208.4 342.35 208.4 343.35Z" fill="#E8E8E8"/>
<path d="M218.9 448.45C218.9 463.75 218.9 479 218.9 494.3C218.9 495.25 220.4 495.25 220.4 494.3C220.4 479 220.4 463.75 220.4 448.45C220.4 447.5 218.9 447.5 218.9 448.45Z" fill="#E8E8E8"/>
<path d="M201.8 232.35C217.9 226.75 234.25 222.15 250.9 218.6C251.85 218.4 251.45 216.95 250.5 217.15C233.85 220.7 217.45 225.3 201.4 230.9C200.5 231.2 200.9 232.65 201.8 232.35Z" fill="#E8E8E8"/>
<path d="M343.05 366.7C359.95 373.05 376.4 380.6 392.8 388.15C393.65 388.55 394.45 387.25 393.55 386.85C377 379.25 360.45 371.65 343.45 365.25C342.55 364.9 342.15 366.35 343.05 366.7Z" fill="#E8E8E8"/>
<path d="M352.85 419.55C352.85 411.2 352.85 402.85 352.85 394.55C352.85 393.6 351.35 393.6 351.35 394.55C351.35 402.9 351.35 411.25 351.35 419.55C351.35 420.55 352.85 420.55 352.85 419.55Z" fill="#E8E8E8"/>
<path d="M351.7 394.45C356.6 394.45 361.5 394.45 366.4 394.45C367.35 394.45 367.35 392.95 366.4 392.95C361.5 392.95 356.6 392.95 351.7 392.95C350.7 392.95 350.7 394.45 351.7 394.45Z" fill="#E8E8E8"/>
<path d="M365.65 394.15C365.65 402.85 365.65 411.55 365.65 420.2C365.65 421.15 367.15 421.15 367.15 420.2C367.15 411.5 367.15 402.8 367.15 394.15C367.15 393.15 365.65 393.15 365.65 394.15Z" fill="#E8E8E8"/>
<path d="M352.3 421.15C356.65 421.15 361 421.15 365.35 421.15C366.3 421.15 366.3 419.65 365.35 419.65C361 419.65 356.65 419.65 352.3 419.65C351.35 419.65 351.35 421.15 352.3 421.15Z" fill="#E8E8E8"/>
<path d="M564.5 445C597.15 432.75 628.45 417.15 657.9 398.5C658.7 398 657.95 396.7 657.15 397.2C627.8 415.8 596.6 431.35 564.1 443.55C563.2 443.9 563.6 445.35 564.5 445Z" fill="#E8E8E8"/>
<path d="M708.05 283.2C708.1 321.9 708.15 360.55 708.15 399.25C708.15 400.2 709.65 400.2 709.65 399.25C709.6 360.55 709.55 321.9 709.55 283.2C709.55 282.25 708.05 282.25 708.05 283.2Z" fill="#E8E8E8"/>
<path d="M599.75 269.65C639.15 269.65 678.5 269.65 717.9 269.65C718.85 269.65 718.85 268.15 717.9 268.15C678.5 268.15 639.15 268.15 599.75 268.15C598.8 268.15 598.8 269.65 599.75 269.65Z" fill="#E8E8E8"/>
<path d="M596.95 319.35C596.95 311 596.95 302.65 596.95 294.35C596.95 293.4 595.45 293.4 595.45 294.35C595.45 302.7 595.45 311.05 595.45 319.35C595.45 320.35 596.95 320.35 596.95 319.35Z" fill="#E8E8E8"/>
<path d="M595.8 294.25C600.7 294.25 605.6 294.25 610.5 294.25C611.45 294.25 611.45 292.75 610.5 292.75C605.6 292.75 600.7 292.75 595.8 292.75C594.85 292.75 594.85 294.25 595.8 294.25Z" fill="#E8E8E8"/>
<path d="M609.75 293.95C609.75 302.65 609.75 311.35 609.75 320C609.75 320.95 611.25 320.95 611.25 320C611.25 311.3 611.25 302.6 611.25 293.95C611.25 292.95 609.75 292.95 609.75 293.95Z" fill="#E8E8E8"/>
<path d="M596.45 320.95C600.8 320.95 605.15 320.95 609.5 320.95C610.45 320.95 610.45 319.45 609.5 319.45C605.15 319.45 600.8 319.45 596.45 319.45C595.45 319.45 595.45 320.95 596.45 320.95Z" fill="#E8E8E8"/>
<path d="M666.4 319.35C666.4 311 666.4 302.65 666.4 294.35C666.4 293.4 664.9 293.4 664.9 294.35C664.9 302.7 664.9 311.05 664.9 319.35C664.9 320.35 666.4 320.35 666.4 319.35Z" fill="#E8E8E8"/>
<path d="M665.2 294.25C670.1 294.25 675 294.25 679.9 294.25C680.85 294.25 680.85 292.75 679.9 292.75C675 292.75 670.1 292.75 665.2 292.75C664.25 292.75 664.25 294.25 665.2 294.25Z" fill="#E8E8E8"/>
<path d="M679.2 293.95C679.2 302.65 679.2 311.35 679.2 320C679.2 320.95 680.7 320.95 680.7 320C680.7 311.3 680.7 302.6 680.7 293.95C680.7 292.95 679.2 292.95 679.2 293.95Z" fill="#E8E8E8"/>
<path d="M665.85 320.95C670.2 320.95 674.55 320.95 678.9 320.95C679.85 320.95 679.85 319.45 678.9 319.45C674.55 319.45 670.2 319.45 665.85 319.45C664.9 319.45 664.9 320.95 665.85 320.95Z" fill="#E8E8E8"/>
<path d="M635.9 124.05C652.441 124.05 665.85 110.417 665.85 93.5999C665.85 76.7828 652.441 63.1499 635.9 63.1499C619.359 63.1499 605.95 76.7828 605.95 93.5999C605.95 110.417 619.359 124.05 635.9 124.05Z" stroke="#E8E8E8" stroke-width="3" stroke-miterlimit="10"/>
<path d="M601.35 211.25C609.65 205.6 619.75 209.15 628.35 212.05C632.4 213.4 636.5 214.65 640.75 215.05C645.35 215.5 649.95 215 654.45 214.1C672.3 210.4 691.6 197.8 709.95 206.35C710.8 206.75 711.6 205.45 710.7 205.05C697.2 198.75 682.35 203.7 669.15 208.2C661.45 210.85 653.5 213.5 645.25 213.7C636.8 213.9 629.4 210.45 621.45 208.25C614.55 206.3 606.75 205.75 600.55 209.95C599.8 210.5 600.55 211.8 601.35 211.25Z" fill="#E8E8E8"/>
<path d="M227.55 184C242 188.15 256.2 181.35 269.75 177.1C277.15 174.8 284.95 172.95 292.75 173.95C300.7 175 307.95 178.8 315.25 181.95C322.65 185.15 330.35 187.8 338.55 186.5C339.5 186.35 339.1 184.9 338.15 185.05C322.5 187.55 309.4 175.3 294.6 172.7C280.15 170.15 266.4 177.05 252.9 181.05C244.75 183.45 236.3 184.9 227.95 182.5C227 182.25 226.6 183.7 227.55 184Z" fill="#E8E8E8"/>
<path d="M356.95 205.7C362.3 205.55 367 203.15 371.75 201C374.65 199.7 377.65 198.45 380.85 198.2C384.4 197.9 387.5 199.15 390.55 200.85C396.15 203.95 401.35 206.8 407.8 207.8C413.9 208.8 420.1 208.35 426.05 206.55C426.95 206.25 426.6 204.8 425.65 205.1C419.05 207.1 412.05 207.35 405.3 205.75C402.1 205 399 203.8 396.1 202.25C393.35 200.75 390.75 198.95 387.85 197.8C376.7 193.35 367.75 203.85 356.95 204.15C356 204.25 356 205.75 356.95 205.7Z" fill="#E8E8E8"/>
<path d="M510.4 159.1C524.8 165.8 540.95 165.5 556.25 162.55C573.55 159.2 589.85 151.55 607.75 151.85C617.85 152.05 627.85 154.25 637.15 158.25C638.05 158.65 638.8 157.35 637.9 156.95C622.9 150.45 606.2 148.7 590.2 152.05C581.45 153.9 573 156.95 564.35 159.2C556.15 161.3 547.75 162.8 539.3 163.1C529.65 163.4 520 161.95 511.2 157.85C510.3 157.4 509.55 158.7 510.4 159.1Z" fill="#E8E8E8"/>
<path d="M337.9 433.95C339.45 442.1 340.95 450.3 342.5 458.45C316.7 467.8 304.15 474.25 304.95 477.85C305.9 482.2 326.15 482.35 365.75 478.35C364.05 461.35 362.35 444.35 360.65 427.3C353.05 429.55 345.45 431.75 337.9 433.95Z" fill="#161616" stroke="#161616" stroke-width="3" stroke-miterlimit="10"/>
<path d="M458.65 331.8C447.85 336.25 443.3 335.15 429.65 338.9C404.5 345.8 386.3 358.7 374.95 368.45C375.5 387.05 376.05 405.65 376.6 424.25C375.45 425.6 362.85 439.9 343.75 437.95C330.6 436.6 322.4 428.3 320.2 425.9C319.85 408.75 320.15 390.45 321.3 371.2C322 360.05 322.9 349.25 324.05 338.9C325.75 336.5 328.35 333.05 331.7 329.05C358 297.75 389.5 283.85 406.65 276.55C423.75 269.25 434.45 264.7 450.4 263.4C454.65 263.05 497.15 260.05 504 277.1C510.35 292.65 485.3 320.85 458.65 331.8Z" fill="white" stroke="#161616" stroke-width="3" stroke-miterlimit="10"/>
<path opacity="0.16" d="M501.25 271.85C491.75 265.3 470.8 293.2 429.1 319.5C389 344.75 368 344.35 355.9 368.9C352.2 376.35 348.35 388.15 346 400.15C343.1 415.25 343.1 428.15 343.75 437.3C347 437.15 350.85 436.7 355 435.6C365.05 432.95 372.2 427.9 376.4 424.35C375.85 405.4 375.25 386.45 374.7 367.55C381.7 361.85 392.85 353.7 407.9 346.75C436.05 333.7 446.6 339.3 469.8 325.95C475.15 322.9 505.4 305.45 504.7 282.65C504.5 279 504.45 274.05 501.25 271.85Z" fill="#3D3D3D"/>
<path opacity="0.25" d="M505.15 280.85C503.05 279.15 494.9 290.55 475.35 304.5C451.05 321.8 439.35 321.6 412.6 337.7C402.95 343.5 389 352.8 373.55 366.95C376.55 365.65 381.4 363.45 387.05 360.2C398.55 353.5 401.35 349.4 410.1 345C413.25 343.45 419.15 341.85 430.9 338.8C451.45 333.45 454.4 333.7 461.85 330.35C471.7 325.95 478.15 320.4 481.55 317.4C497.85 303.1 507.8 282.95 505.15 280.85Z" fill="#3D3D3D"/>
<path opacity="0.2" d="M374.1 367.5C367.7 390.55 361.35 413.65 354.95 436.7C357.8 435.95 361.3 434.75 365.1 432.75C370.55 429.85 374.4 426.4 376.9 423.75C375.95 405 375.05 386.25 374.1 367.5Z" fill="#3D3D3D"/>
<path d="M500.55 512.05C502.1 520.2 503.6 528.4 505.15 536.55C481.8 548.3 470.7 555.6 471.7 558.45C472.95 561.9 491.8 558.9 528.2 549.5C526.55 534.8 524.95 520.1 523.3 505.4C515.7 507.65 508.15 509.85 500.55 512.05Z" fill="#161616" stroke="#161616" stroke-width="3" stroke-miterlimit="10"/>
<path d="M520.55 257.95C522.3 271.45 524.55 291.8 525.65 316.65C527.3 355 524.9 376.35 524.5 404.7C524.15 429.55 525.3 465.2 532.4 509.15C528.55 511.7 519.85 516.75 507.55 517.6C495.85 518.4 486.9 515 482.7 513.1C481.6 491.8 479.65 469.15 476.5 445.35C470.7 401.5 461.95 362 452.25 327.4C446.25 319.1 440.2 310.85 434.2 302.55C456.05 287.1 477.85 271.7 499.7 256.25C506.6 256.85 513.55 257.4 520.55 257.95Z" fill="white" stroke="#161616" stroke-width="3" stroke-miterlimit="10"/>
<path d="M442.45 306.85C440.9 304.7 439.4 302.5 437.85 300.35C437.4 302.05 436.95 303.75 436.5 305.5C443.9 300.9 451.15 296.05 458.1 290.75C463.9 286.35 469.3 281.5 475.15 277.2C478.85 274.45 482.65 271.85 486.45 269.25C490.1 266.8 493.8 263.7 497.8 261.75C499.95 260.7 502.5 260.85 504.8 260.85C509.2 260.85 513.55 261 517.9 261.25C522.7 261.5 522.7 254 517.9 253.75C513.55 253.55 509.15 253.35 504.8 253.35C502 253.35 499.1 253.35 496.45 254.2C492.3 255.55 488.55 258.8 485 261.25C480.9 264 476.85 266.75 472.85 269.65C466.65 274.15 460.95 279.2 454.9 283.85C447.8 289.3 440.35 294.3 432.75 299C431.15 300 430.2 302.45 431.4 304.15C432.95 306.3 434.45 308.5 436 310.65C438.75 314.55 445.25 310.8 442.45 306.85Z" fill="white"/>
<path opacity="0.14" d="M470.85 263.95C478.45 286.4 485.5 311.4 491.1 338.75C505.05 407.2 505.3 468.1 501.25 515.95C503.65 516.8 506.7 517.55 510.25 517.65C521.5 517.95 529.6 511.45 532.2 509.2C530 498.15 527.15 481.6 525.45 461.4C521.75 417.65 526.4 392.85 527.15 355.65C527.6 333.05 526.75 300.95 520.4 261.7C503.85 262.45 487.35 263.2 470.85 263.95Z" fill="#3D3D3D"/>
<path opacity="0.2" d="M522.05 284.8C520.65 334.05 518.25 384.7 514.75 436.7C512.95 463.55 510.85 490 508.55 516C510.85 516.4 514.95 516.8 519.8 515.45C526.1 513.65 530 509.9 531.6 508.15C526 475.65 524.6 449.3 524.3 431.65C523.75 398.25 526.9 381.2 526 342.2C525.4 317.4 523.5 297.3 522.05 284.8Z" fill="#3D3D3D"/>
<path d="M317.55 81.65C318.2 80.15 311.8 77.05 312.45 75.3C313.1 73.5 321.05 73.05 326.4 77C332 81.1 331.65 87.1 334.85 94.8C338.5 103.45 344.25 108.15 353 115.35C358.25 119.7 378.75 136 408.3 135.1C421.7 134.7 432.9 130.85 441.2 126.8C440.05 141.15 438.85 155.55 437.7 169.9C430.9 171.45 421.55 172.8 410.6 171.85C370.8 168.4 345.25 137.7 337.35 128.25C332.55 122.5 326 113.65 320 101.6C315.3 103 308 104.6 299.25 103.7C293.05 103.1 285.65 101.2 285.7 99.45C285.75 97.15 298.5 95.6 298.4 94.8C298.3 94.1 288.25 96.85 285.7 93.1C283.7 90.15 286.5 83.5 291.2 80.8C292.65 80 294.3 79.5 298.4 79.55C309.5 79.55 316.95 83 317.55 81.65Z" fill="white" stroke="#161616" stroke-width="3" stroke-miterlimit="10"/>
<path d="M285.55 90.25C288.1 89.65 291.05 90.9 293.65 91C295.95 91.1 298.25 90.9 300.5 90.45C301.45 90.25 301.05 88.8 300.1 89C297.25 89.55 294.4 89.7 291.5 89.3C289.3 89 287.35 88.3 285.15 88.8C284.2 89 284.6 90.45 285.55 90.25Z" fill="#161616"/>
<path d="M287.65 85.3001C290.65 84.7001 293.3 85.9501 296.2 86.1001C298.75 86.2501 301.3 85.7501 303.8 85.1001C304.75 84.8501 304.35 83.4001 303.4 83.6501C300.15 84.5001 297 84.9001 293.65 84.2001C291.4 83.7501 289.5 83.3501 287.2 83.8001C286.3 84.0501 286.7 85.5001 287.65 85.3001Z" fill="#161616"/>
<path d="M315.3 86.7999C317.85 89.4999 321.3 90.8999 325 90.7999C325.95 90.7499 325.95 89.2499 325 89.2999C321.65 89.4499 318.65 88.1999 316.4 85.7499C315.7 85.0499 314.65 86.0999 315.3 86.7999Z" fill="#161616"/>
<path opacity="0.18" d="M285.7 92.7001C285.85 91.3501 296.75 91.0001 306.75 92.4501C312.15 93.2001 317.4 93.9501 322.35 96.3001C333.15 101.35 336.7 111 342.3 119.85C342.3 119.85 354.85 139.5 377.3 150.5C399.6 161.4 425.05 154.1 439.4 148.3C438.85 155.5 438.3 162.7 437.75 169.9C424.5 172.6 413.9 171.95 407.1 171C369.25 165.65 345.5 136.55 336.05 125C328.4 115.65 323.3 107.05 320.2 101.2C315.25 103 307.9 104.85 299.15 103.95C293.1 103.3 285.95 101.3 286 99.5501C286.1 97.3001 298.15 95.9501 298.05 95.4501C298 95.2001 294.6 95.9501 290.4 94.9001C288.75 94.5001 285.65 93.4501 285.7 92.7001Z" fill="#3D3D3D"/>
<path opacity="0.24" d="M399.25 162.45C417.1 162.7 430.9 155.7 438.1 151.25C437.85 157.65 437.55 164 437.3 170.4C427.4 172.05 410.05 173.45 390.25 167.1C354.4 155.65 336.8 127.15 332.25 119.2C333.7 121.8 357.25 161.9 399.25 162.45Z" fill="#3D3D3D"/>
<path opacity="0.19" d="M302.7 100.9C313.4 100.95 320.6 99.35 320.75 100.1C320.85 100.7 316.4 102.5 311.7 103.4C298.05 106 285.55 100.35 285.7 99.55C285.85 99 291.45 100.85 302.7 100.9Z" fill="#3D3D3D"/>
<path d="M314.4 59.9C322.187 59.9 328.5 53.5872 328.5 45.7999C328.5 38.0127 322.187 31.7 314.4 31.7C306.613 31.7 300.3 38.0127 300.3 45.7999C300.3 53.5872 306.613 59.9 314.4 59.9Z" fill="#999999"/>
<path d="M311.55 60.7999C320.386 60.7999 327.55 53.6141 327.55 44.75C327.55 35.8858 320.386 28.7 311.55 28.7C302.713 28.7 295.55 35.8858 295.55 44.75C295.55 53.6141 302.713 60.7999 311.55 60.7999Z" stroke="#161616" stroke-width="2" stroke-miterlimit="10"/>
<path d="M313.75 35.95C310.6 35.75 302.5 38.8 305.5 43.35C307.25 46 310.65 44.25 313.1 44.9C316.25 45.75 315.9 49.55 313.95 51.4C311.9 53.3 309 53 307.05 51.25C306.35 50.6 305.25 51.65 306 52.3C309.95 55.9 317 53.85 317 48C317 45.35 315.2 43.65 312.7 43.35C310.85 43.1 305.65 44.5 306.85 40.7C307.65 38.1 311.5 37.3 313.8 37.45C314.75 37.5 314.75 36 313.75 35.95Z" fill="#161616"/>
<path d="M312.05 36.6499C312.2 34.9999 312.35 33.3999 312.5 31.7499C312.6 30.7999 311.1 30.7999 311 31.7499C310.85 33.3999 310.7 34.9999 310.55 36.6499C310.45 37.5999 311.95 37.5999 312.05 36.6499Z" fill="#161616"/>
<path d="M311.05 54.5499C311.2 55.6999 311.35 56.8999 311.45 58.0499C311.55 58.9999 313.05 58.9999 312.95 58.0499C312.8 56.8999 312.65 55.6999 312.55 54.5499C312.45 53.5999 310.95 53.5999 311.05 54.5499Z" fill="#161616"/>
<path d="M456.3 123.25C454.65 123.35 449.1 123.6 442 125.35C437.95 126.35 434.75 127.5 432.9 128.25C429.55 135.05 425.25 145.55 423.65 158.85C421.35 177.8 425.95 190 429.1 208.85C431.25 221.8 433 240.55 430.6 264.25C435.7 268.9 449 279.75 469.2 282.55C497.8 286.55 518.8 271.45 523.15 268.2C525.8 251.8 528.3 234.95 530.55 217.7C534.4 188.5 537.3 160.25 539.45 133.1C525.6 120.05 513.6 116.55 505.15 115.85C488.9 114.45 474.2 122.25 456.3 123.25Z" fill="#999999"/>
<path opacity="0.17" d="M478.75 135.85C481.85 139.05 486.1 143.9 489.9 150.5C508.15 182.2 496.85 219.2 491.8 235.6C488.3 247.1 481.65 263.95 468.55 282.15C473.55 283 479.85 283.5 487.05 282.8C504.15 281.1 516.55 273.35 522.75 268.75C527.45 242.05 531.45 213.65 534.55 183.65C536.35 166.05 537.7 148.9 538.7 132.35C536.75 130.45 533.75 127.9 529.75 125.35C523.3 121.2 513.15 114.75 501.7 116.75C487.1 119.25 479.7 133.85 478.75 135.85Z" fill="#3D3D3D"/>
<path opacity="0.11" d="M536.45 143.8C533.9 150.95 529.95 162.35 525.95 176.65C514.05 218.6 514.9 236.6 500.45 258.25C496.05 264.85 488.65 274.2 476.2 283.45C482.35 283.4 491.25 282.65 501.4 279.3C510.6 276.25 517.65 272.15 522.45 268.8C526.35 247.9 529.8 225.35 532.35 201.2C534.4 181.1 535.75 161.9 536.45 143.8Z" fill="#3D3D3D"/>
<path d="M513.25 240.05C512.2 238.1 513.3 235.2 514.95 233.65C518 230.75 523.55 231.85 526.05 235C526.4 235.45 528.1 237.55 527.4 239.35C525.9 243 515.4 243.95 513.25 240.05Z" fill="white" stroke="#161616" stroke-width="3" stroke-miterlimit="10"/>
<path d="M527.35 124.6C534.8 129.75 544 137.25 552.85 147.75C562.5 159.15 568.8 170.65 573 180.3C576.55 188.55 578.7 195.9 580.05 201.45C575.6 211.7 567.25 226.8 551.85 240.05C546.3 244.85 540.8 248.55 535.75 251.45C533.1 254.4 529.4 258.15 524.5 262C521.3 264.55 516.95 267.95 515.95 267.1C515.15 266.4 516.55 262.95 518.7 260.55C521.25 257.75 524.4 256.9 524.35 256.75C524.3 256.6 521.5 257.1 518.9 259.1C515.9 261.45 516.05 263.65 514.55 264C511.4 264.75 504.15 257.15 505.25 249.45C506.15 243 512.5 239.55 514.65 238.35C520.55 235.1 526.3 235.7 528.4 236C535.9 224.35 543.4 212.75 550.9 201.1C548.85 199.45 546.15 197.1 543.2 194.05C539.75 190.5 530.05 180.4 525.4 166.55C519.15 147.95 524.9 130.8 527.35 124.6Z" fill="white" stroke="#161616" stroke-width="3" stroke-miterlimit="10"/>
<path d="M506.45 255.8C508.3 251.7 511.45 248.5 515.55 246.7C516.45 246.3 515.65 245 514.8 245.4C510.5 247.3 507.05 250.75 505.15 255.05C504.75 255.9 506.05 256.65 506.45 255.8Z" fill="#161616"/>
<path d="M511.95 262.75C510.4 258.05 514.95 253.2 518.7 251.05C519.55 250.55 518.8 249.25 517.95 249.75C513.6 252.25 508.7 257.75 510.5 263.15C510.8 264.05 512.25 263.65 511.95 262.75Z" fill="#161616"/>
<path opacity="0.18" d="M525.05 132.85C531.05 139.05 539.5 148.3 548.55 160.45C561.25 177.4 567.55 185.9 568 194.85C568.8 211.45 556.35 232.2 539.95 240.1C535.2 242.4 522.85 247.05 515.75 256.15C513.7 258.75 511.6 262.35 512.35 263.15C513 263.8 515.4 262.1 516.2 262.9C517.15 263.85 514.85 266.75 515.5 267.4C516.3 268.2 520.75 265.35 525.25 261.75C528.15 259.4 531.7 256.2 535.45 252C540.2 249.3 545.25 245.9 550.4 241.6C566.75 227.95 575.55 212 580.25 201.1C579.1 196.7 577.35 190.75 574.6 183.9C566.3 163.25 555.2 149.9 551.55 145.7C546.3 139.6 538.4 131.65 527.35 124C526.55 126.95 525.8 129.9 525.05 132.85Z" fill="#3D3D3D"/>
<path opacity="0.21" d="M573 208.4C568.2 214.6 565.75 218.55 563.75 221.5C559.95 227 554.3 232.25 542.95 242.75C538.9 246.5 533.4 251.5 526.65 257.25C519.55 263.4 516.1 266.55 516.25 266.75C516.45 267 523.3 261.8 536.85 251.15C539.4 249.65 543 247.45 547.05 244.35C570.35 226.5 580.8 200.85 579.85 200.25C579.45 200.05 577.3 202.8 573 208.4Z" fill="#3D3D3D"/>
<path d="M445.85 41.25C431.15 53.3 431.75 77.75 437.5 93.55C441.15 103.55 447 110.4 450.85 114.2C450.05 120 449.25 125.8 448.45 131.6C452.7 133.55 458.8 135.6 466.25 135.95C485.75 136.9 499.7 125.5 503.5 122.2C500.05 110.65 496.6 99.1 493.15 87.5C492.7 84.25 491.95 79.25 491.15 73.15C489 57.25 489.1 56.4 488.15 53.8C487.75 52.75 481.75 37.5 467.8 34.8C456.55 32.7 447.25 40.1 445.85 41.25Z" fill="white" stroke="#161616" stroke-width="3" stroke-miterlimit="10"/>
<path d="M433.75 81.9499C432.9 85.2999 432 90.5499 432.6 96.8499C433 101.05 433.7 108.35 438.95 115.4C444.6 123 452.2 125.9 455.45 126.95C455.2 126.1 454.9 125.05 454.75 123.8C454.6 122.5 454.65 121.3 454.75 120.4C458.2 122.3 461.7 124.15 465.15 126.05C473.9 118 476.8 110.6 477.8 105.25C478.6 101.05 479.1 93.3499 480.95 79.2499C481.3 76.7499 481.95 72.2499 484.8 71.0999C486.15 70.5499 487.95 70.7999 489.1 71.7999C492.55 74.6999 489.05 83.0999 489.8 83.3499C490.55 83.5999 496.6 75.1499 494.55 65.4999C493.5 60.4999 490.6 57.0499 488.9 55.3499C485.1 61.3499 480.9 67.5499 476.25 73.8999C473.3 77.9499 470.35 81.7499 467.45 85.4499C466.35 86.0499 464.7 86.6999 462.8 86.5499C461.3 86.3999 460.8 85.8999 459.7 85.5999C455.6 84.4499 453.4 89.2999 449.35 88.6499C446.05 88.0999 445.75 84.5499 442.1 84.4499C440.35 84.3999 439.65 85.1999 437.85 84.8499C435.95 84.2999 434.6 82.9999 433.75 81.9499Z" fill="#161616" stroke="#161616" stroke-width="3" stroke-miterlimit="10"/>
<path d="M450.75 67.75C449.5 73.55 448.7 79.4 448.35 85.3C448.3 85.9 449 86.2 449.5 85.95C451.55 84.9 453.65 83.8 455.7 82.75C456.55 82.3 455.8 81 454.95 81.45C452.9 82.5 450.8 83.6 448.75 84.65C449.15 84.85 449.5 85.1 449.9 85.3C450.25 79.5 451 73.8 452.25 68.15C452.4 67.2 450.95 66.8 450.75 67.75Z" fill="#161616"/>
<path d="M442.75 73.75C443.385 73.75 443.9 72.4516 443.9 70.85C443.9 69.2483 443.385 67.95 442.75 67.95C442.115 67.95 441.6 69.2483 441.6 70.85C441.6 72.4516 442.115 73.75 442.75 73.75Z" fill="#161616" stroke="#161616" stroke-width="3" stroke-miterlimit="10"/>
<path d="M462.15 73.75C463.006 73.75 463.7 72.4516 463.7 70.85C463.7 69.2483 463.006 67.95 462.15 67.95C461.294 67.95 460.6 69.2483 460.6 70.85C460.6 72.4516 461.294 73.75 462.15 73.75Z" fill="#161616" stroke="#161616" stroke-width="3" stroke-miterlimit="10"/>
<path d="M439.95 65.2C440.9 63.45 443 63.85 444.55 64.4C445.45 64.7 445.85 63.25 444.95 62.95C442.75 62.15 439.95 62.1 438.65 64.45C438.2 65.25 439.5 66.05 439.95 65.2Z" fill="#161616"/>
<path d="M458.85 63.1499C461.2 60.8999 464.8 61.0999 466.8 63.7999C467.35 64.5499 468.65 63.7999 468.1 63.0499C465.55 59.5999 460.95 59.1499 457.8 62.0999C457.1 62.7499 458.15 63.7999 458.85 63.1499Z" fill="#161616"/>
<path d="M422.15 56C443.2 57.25 464.2 59 485.1 61.3C487.95 61.6 487.95 57.1 485.1 56.8C464.15 54.5 443.15 52.75 422.15 51.5C419.25 51.35 419.25 55.85 422.15 56Z" fill="#161616"/>
<path d="M435.75 52.9C436.1 49.65 437.4 41.3 443.8 34.5C452.15 25.65 467.6 21.95 479.6 29.45C489 35.35 494.05 46.75 492.35 58.35C473.5 56.55 454.65 54.75 435.75 52.9Z" fill="#4C4C4C"/>
<path opacity="0.69" d="M462.35 27.15C459.9 29.2 459.9 33.55 460.75 38.15C461.7 43.2 464.15 49.35 467.8 55.7C476 56.65 484.2 57.65 492.4 58.6C492.75 56.8 493.1 54.2 492.8 51.1C492.8 51.1 492.25 45.4 489.25 40.25C483.25 29.95 467.55 22.75 462.35 27.15Z" fill="#3A3A3A"/>
<path opacity="0.24" d="M488.05 85.8499C486.2 86.8499 484.35 86.5999 483.7 86.4499C485.3 89.4999 490.25 99.7999 487.85 113.1C485.55 125.75 478.05 133.4 475.45 135.85C478.7 135.2 482.4 134.15 486.4 132.55C494 129.45 499.7 125.35 503.55 122C499.55 107.95 495.55 93.8999 491.55 79.8499C491.55 80.0999 491.35 84.0999 488.05 85.8499Z" fill="#3D3D3D"/>
<path opacity="0.19" d="M469.55 59.6499C470.15 62.1999 470.65 66.0499 470.05 70.5499C469 78.1499 465.35 83.3999 463.45 85.8499C464.6 85.4999 465.75 85.0999 466.9 84.7499C469.2 81.9499 471.55 78.9499 473.85 75.8999C477.65 70.8499 481.15 65.8499 484.35 61.0499C479.4 60.5999 474.5 60.0999 469.55 59.6499Z" fill="#3D3D3D"/>
</svg>
